# xmcd CD database file
#
# Track frame offsets:
#	150
#	30350
#	44643
#	56155
#	84498
#	102303
#	119993
#	147948
#	172480
#	205150
#	234055
#	259075
#
# Disc length: 3994 seconds
#
# Revision: 3
# Processed by: cddbd v1.5.2PL0 Copyright (c) Steve Scherf et al.
# Submitted via: CDex 1.51
#
DISCID=b00f980c
DTITLE=Ben Webster - Vol. 167 - The Frog 1956 - 1962
DYEAR=1964
DGENRE=Jazz
TTITLE0=Bye Bye Blackbird
TTITLE1=In The Wee Small Hours Of The Morning
TTITLE2=How Deep Is the Ocean
TTITLE3=The Touch Of Your Lips
TTITLE4=When Your Lover Has Gone
TTITLE5=Sunday
TTITLE6=My One And Only Love
TTITLE7=Night And Day
TTITLE8=My Ideal
TTITLE9=Where Or When
TTITLE10=How Long Has This Been Going On
TTITLE11=Did You Call Her Today
EXTD=Also\nArt tatum\nHank Jones\nHarry Edison YEAR: 1964
EXTT0=
EXTT1=
EXTT2=
EXTT3=
EXTT4=
EXTT5=
EXTT6=
EXTT7=
EXTT8=
EXTT9=
EXTT10=
EXTT11=
PLAYORDER=
